<?xml version="1.0" encoding="utf-8"?>
<!-- Generator: Adobe Illustrator 18.0.0, SVG Export Plug-In . SVG Version: 6.00 Build 0)  -->
<!DOCTYPE svg PUBLIC "-//W3C//DTD SVG 1.1//EN" "http://www.w3.org/Graphics/SVG/1.1/DTD/svg11.dtd">
<svg version="1.1" id="Layer_1" xmlns="http://www.w3.org/2000/svg" xmlns:xlink="http://www.w3.org/1999/xlink" x="0px" y="0px"
	 viewBox="0 0 841.9 595.3" enable-background="new 0 0 841.9 595.3" xml:space="preserve">
<g>
	<path fill="#F47927" d="M606.5,268.9v-10.7c0-43.6-23.3-61.8-73.1-61.8h-43.3c-4.8,0-8.6,3.9-8.6,8.6V253c0,4.8,3.9,8.6,8.6,8.6
		h19.4c4.8,0,8.6-3.9,8.6-8.6v-14.1c0-4.8,3.9-8.6,8.6-8.6h7.2c28.6,0,33.7,10.2,33.7,29.7v7c0,19.5-7.5,28.9-34.3,28.9h-15.3v0
		h-28.1c-4.8,0-8.6,3.9-8.6,8.6v89.3c0,4.8,3.9,8.6,8.6,8.6h19.7c4.8,0,8.6-3.9,8.6-8.6v-55.3c0-4.8,3.9-8.6,8.6-8.6h0
		c3.1,0,6,1.7,7.5,4.4l36,63.8c1.5,2.7,4.4,4.4,7.5,4.4h23.1c6.6,0,10.8-7.2,7.5-12.9L576,332.7c-2.5-4.3-0.9-10,3.6-12.2
		C598.3,311.6,606.5,295.6,606.5,268.9z"/>
	<circle fill="#6F605A" cx="254.3" cy="215" r="22.3"/>
	<path fill="#6F605A" d="M260.3,250h-12c-7.1,0-13,5.8-13,13v126.6c0,7.1,5.8,13,13,13h12c7.1,0,13-5.8,13-13V263
		C273.3,255.9,267.5,250,260.3,250z"/>
	<path fill="#6F605A" d="M445.7,194.4H313c-7.1,0-13,5.8-13,13v6c0,7.1,5.8,13,13,13h34.4c7.1,0,13,5.8,13,13v150.4
		c0,7.1,5.8,13,13,13h12.1c7.1,0,13-5.8,13-13V239.3c0-7.1,5.8-13,13-13h34.4c7.1,0,13-5.8,13-13v-6
		C458.7,200.2,452.9,194.4,445.7,194.4z"/>
</g>
</svg>
