<?xml version="1.0" encoding="utf-8"?>
<!-- Generator: Adobe Illustrator 18.0.0, SVG Export Plug-In . SVG Version: 6.00 Build 0)  -->
<!DOCTYPE svg PUBLIC "-//W3C//DTD SVG 1.1//EN" "http://www.w3.org/Graphics/SVG/1.1/DTD/svg11.dtd">
<svg version="1.1" id="Layer_1" xmlns="http://www.w3.org/2000/svg" xmlns:xlink="http://www.w3.org/1999/xlink" x="0px" y="0px"
	 viewBox="0 0 841.9 595.3" enable-background="new 0 0 841.9 595.3" xml:space="preserve">
<g>
	<path fill="#F47927" d="M374.1,279.4v-6.6c0-26.7-14.3-37.9-44.7-37.9h-26.5c-2.9,0-5.3,2.4-5.3,5.3v29.4c0,2.9,2.4,5.3,5.3,5.3
		h11.9c2.9,0,5.3-2.4,5.3-5.3v-8.6c0-2.9,2.4-5.3,5.3-5.3h4.4c17.5,0,20.7,6.2,20.7,18.2v4.3c0,12-4.6,17.7-21,17.7H320v0h-17.2
		c-2.9,0-5.3,2.4-5.3,5.3V356c0,2.9,2.4,5.3,5.3,5.3h12.1c2.9,0,5.3-2.4,5.3-5.3v-33.9c0-2.9,2.4-5.3,5.3-5.3l0,0
		c1.9,0,3.7,1,4.6,2.7l22.1,39.1c0.9,1.7,2.7,2.7,4.6,2.7h14.2c4.1,0,6.6-4.4,4.6-7.9l-20.1-34.8c-1.5-2.7-0.5-6.1,2.2-7.4
		C369.1,305.6,374.1,295.8,374.1,279.4z"/>
	<path fill="#F47927" d="M399.1,361.4h12.1c2.9,0,5.2-2.3,5.2-5.2v-84.4c0-2.9-2.3-5.2-5.2-5.2h-12.1c-2.9,0-5.2,2.3-5.2,5.2v84.4
		C393.9,359.1,396.2,361.4,399.1,361.4z"/>
	<path fill="#F47927" d="M392.6,245c0,16.6,25.4,16.4,25.4,0C418,228.5,392.6,228.3,392.6,245z"/>
	<path fill="#F47927" d="M570.6,264.2c-25.4,0-37.5,13.4-37.5,37.7v22c0,26.1,12.1,37.7,37.5,37.7c18.7,0,30.2-5.3,35-16.1
		c0.7-1.6-0.5-3.4-2.3-3.4h-30.6c-0.6,0-1.1,0-1.7,0c-9.2,0-15.2-3-15.2-18.5l0,0c0-1.4,1.1-2.5,2.5-2.5h47.5c1.4,0,2.5-1.1,2.5-2.5
		v-16.7C608.2,275.8,596,264.2,570.6,264.2z M558.2,302.6c-1.4,0-2.5-1.1-2.5-2.5c0.4-10.1,3.2-16.3,15.5-16.3
		c11.9,0,14.7,5.8,15,16.3c0,1.4-1.1,2.5-2.5,2.5H558.2z"/>
	<path fill="#F47927" d="M661.1,284.2c6.4,0,11.6,2.6,12.7,8.2c0.3,1.4,1.5,2.4,2.9,2.4H693c1.7,0,3.1-1.4,2.9-3.1
		c-1.3-15.8-12.6-27.7-35-27.7c-15.1,0-27.5,5-33.2,16c-1,2,0.4,4.3,2.6,4.3h27.5c0.1,0,0.2,0,0.3,0
		C659.1,284.2,660.1,284.2,661.1,284.2z"/>
	<path fill="#F47927" d="M671.3,305c-6.2-0.7-12-0.7-16.4-1.8c-0.2,0-0.4-0.1-0.6-0.1h-28.7c-0.1,0-0.2,0-0.3,0
		c3.2,13.1,14.8,17.7,26.8,19.2c11.6,1.5,22.3,1.6,22.3,9.8c0,4.8-4.6,9.8-13.6,9.8c-0.6,0-1.1,0-1.7,0h-30c-2.1,0-3.4,2.3-2.4,4.1
		c5.5,9.9,17.1,15.6,33.1,15.6c20.8,0,37.4-9.2,37.4-30.3C697.2,314.2,684.2,306.5,671.3,305z"/>
	<circle fill="#6F605A" cx="158.4" cy="246.5" r="13.7"/>
	<path fill="#6F605A" d="M162.1,267.9h-7.3c-4.4,0-7.9,3.6-7.9,7.9v77.5c0,4.4,3.6,7.9,7.9,7.9h7.3c4.4,0,7.9-3.6,7.9-7.9v-77.5
		C170,271.5,166.4,267.9,162.1,267.9z"/>
	<path fill="#6F605A" d="M275.6,233.8h-81.3c-4.4,0-7.9,3.6-7.9,7.9v3.7c0,4.4,3.6,7.9,7.9,7.9h21c4.4,0,7.9,3.6,7.9,7.9v92.1
		c0,4.4,3.6,7.9,7.9,7.9h7.4c4.4,0,7.9-3.6,7.9-7.9v-92.1c0-4.4,3.6-7.9,7.9-7.9h21c4.4,0,7.9-3.6,7.9-7.9v-3.7
		C283.6,237.4,280,233.8,275.6,233.8z"/>
	<g>
		<path fill="none" d="M474.7,285.2c-9.7,0-15.2,4.6-15.2,16.2v22.8c0,13.9,5.7,18.5,14.6,18.5c8.5,0,15.3-7.1,15.3-15.6v-25.9
			C489.3,289.6,483.7,285.2,474.7,285.2z"/>
		<path fill="none" d="M508.1,362.3C508.1,362.3,508.2,362.2,508.1,362.3l-13.4,0c0,0,0,0,0,0H508.1z"/>
		<path fill="#F47927" d="M508.1,236H493c-2,0-3.5,1.5-3.7,3.5v33.4c-3.8-6.4-12-8.5-19.8-8.5c-21.5,0-32.5,13.3-32.5,36.1v24.9
			c0,26.9,12.8,37.4,31.8,37.4c11,0,19-4.3,22.8-11.1l0.9,6c0.6,3,1.4,4.5,2.2,4.6h13.4c1.8,0,3.3-1.4,3.6-3.3V239.3
			C511.5,237.5,510,236,508.1,236z M489.3,327.2c0,8.5-6.8,15.6-15.3,15.6c-8.8,0-14.6-4.6-14.6-18.5v-22.8
			c0-11.6,5.6-16.2,15.2-16.2c9,0,14.6,4.4,14.6,16.1V327.2z"/>
	</g>
</g>
</svg>
